HIERARCHY
ROOT SpineBase
{
  OFFSET 0.000000 0.000000 0.000000
  CHANNELS 6 Xposition Yposition Zposition Zrotation Xrotation Yrotation
  JOINT SpineMid
  {
    OFFSET -0.000000 29.635459 0.000000
    CHANNELS 3 Zrotation Xrotation Yrotation
    JOINT SpineShoulder
    {
      OFFSET -0.063134 21.974117 -0.826068
      CHANNELS 3 Zrotation Xrotation Yrotation
      JOINT Neck
      {
        OFFSET -0.037111 7.259691 -0.608372
        CHANNELS 3 Zrotation Xrotation Yrotation
        JOINT Head
        {
          OFFSET -1.430661 14.183830 -5.041622
          CHANNELS 3 Zrotation Xrotation Yrotation
          End Site
          {
            OFFSET 0 0 0
          }
        }
      }
      JOINT ShoulderLeft
      {
        OFFSET -17.898535 -3.960037 2.277414
        CHANNELS 3 Zrotation Xrotation Yrotation
        JOINT ElbowLeft
        {
          OFFSET -2.931054 -25.551240 1.955620
          CHANNELS 3 Zrotation Xrotation Yrotation
          JOINT WristLeft
          {
            OFFSET 0.037697 -18.950400 -13.496217
            CHANNELS 3 Zrotation Xrotation Yrotation
            JOINT HandLeft
            {
              OFFSET 1.856280 -4.932917 -2.756042
              CHANNELS 3 Zrotation Xrotation Yrotation
              JOINT HandTipLeft
              {
                OFFSET 0.254249 -5.697258 -3.649418
                CHANNELS 3 Zrotation Xrotation Yrotation
                End Site
                {
                  OFFSET 0 0 0
                }
              }
              JOINT ThumbLeft
              {
                OFFSET -3.794120 0.676691 -4.188439
                CHANNELS 3 Zrotation Xrotation Yrotation
                End Site
                {
                  OFFSET 0 0 0
                }
              }
            }
          }
        }
      }
      JOINT ShoulderRight
      {
        OFFSET 16.746242 -4.217443 -1.526472
        CHANNELS 3 Zrotation Xrotation Yrotation
        JOINT ElbowRight
        {
          OFFSET 4.289797 -27.560450 3.501286
          CHANNELS 3 Zrotation Xrotation Yrotation
          JOINT WristRight
          {
            OFFSET 1.660919 -22.165956 -4.354350
            CHANNELS 3 Zrotation Xrotation Yrotation
            JOINT HandRight
            {
              OFFSET -2.288652 -5.152248 -1.208472
              CHANNELS 3 Zrotation Xrotation Yrotation
              JOINT HandTipRight
              {
                OFFSET -0.715345 -7.849220 0.216802
                CHANNELS 3 Zrotation Xrotation Yrotation
                End Site
                {
                  OFFSET 0 0 0
                }
              }
              JOINT ThumbRight
              {
                OFFSET 2.780131 -1.383191 -1.839863
                CHANNELS 3 Zrotation Xrotation Yrotation
                End Site
                {
                  OFFSET 0 0 0
                }
              }
            }
          }
        }
      }
    }
  }
  JOINT HipLeft
  {
    OFFSET -7.661043 0.890533 -3.231540
    CHANNELS 3 Zrotation Xrotation Yrotation
    JOINT KneeLeft
    {
      OFFSET -1.968990 -34.915251 4.912367
      CHANNELS 3 Zrotation Xrotation Yrotation
      JOINT AnkleLeft
      {
        OFFSET 2.830653 -35.052173 8.399774
        CHANNELS 3 Zrotation Xrotation Yrotation
        JOINT FootLeft
        {
          OFFSET -3.440842 -5.559580 -8.563087
          CHANNELS 3 Zrotation Xrotation Yrotation
          End Site
          {
            OFFSET 0 0 0
          }
        }
      }
    }
  }
  JOINT HipRight
  {
    OFFSET 7.146721 0.592925 -3.973962
    CHANNELS 3 Zrotation Xrotation Yrotation
    JOINT KneeRight
    {
      OFFSET 0.309138 -34.203791 4.509740
      CHANNELS 3 Zrotation Xrotation Yrotation
      JOINT AnkleRight
      {
        OFFSET -5.921395 -34.604106 8.321632
        CHANNELS 3 Zrotation Xrotation Yrotation
        JOINT FootRight
        {
          OFFSET 5.842634 -6.411981 0.866672
          CHANNELS 3 Zrotation Xrotation Yrotation
          End Site
          {
            OFFSET 0 0 0
          }
        }
      }
    }
  }
}
MOTION
Frames: 8
Frame Time: 0.033333
21.852169 76.482974 319.021647 0.000000 0.000000 2.870255 -0.000000 0.000000 -2.870255 -0.000000 0.000000 0.000000 -0.000000 0.000000 0.000000 0.000000 0.000000 0.000000 -0.000000 0.000000 0.000000 -0.000000 0.000000 0.000000 -0.000000 0.000000 0.000000 -0.000000 0.000000 0.000000 0.000000 0.000000 0.000000 0.000000 0.000000 0.000000 -0.000000 0.000000 0.000000 -0.000000 0.000000 0.000000 -0.000000 0.000000 0.000000 -0.000000 0.000000 0.000000 0.000000 0.000000 0.000000 0.000000 0.000000 0.000000 -0.000000 0.000000 -2.870255 -0.000000 0.000000 0.000000 -0.000000 0.000000 0.000000 0.000000 0.000000 0.000000 -0.000000 0.000000 -2.870255 -0.000000 0.000000 0.000000 -0.000000 0.000000 0.000000 0.000000 0.000000 0.000000
22.011425 76.443460 318.791875 0.069579 0.010243 3.014129 -0.070022 -0.006570 -3.014139 -0.000000 0.000000 0.000000 -0.000000 0.000000 0.000000 0.000000 0.000000 0.000000 -0.000000 0.000000 0.000000 0.059001 -1.755849 -0.045101 1.665038 -0.190891 -1.679531 -3.359825 -2.468009 2.650199 0.000000 0.000000 0.000000 0.000000 0.000000 0.000000 -0.000000 0.000000 0.000000 -1.068707 2.308566 0.403171 -2.189461 1.985688 -1.480420 3.071910 0.247401 0.811536 0.000000 0.000000 0.000000 0.000000 0.000000 0.000000 -0.070022 -0.006570 -3.014139 -0.000000 0.000000 0.000000 2.147326 -5.899581 0.503143 0.000000 0.000000 0.000000 -0.070022 -0.006570 -3.014139 -0.000000 0.000000 0.000000 -2.726663 3.725048 3.198151 0.000000 0.000000 0.000000
22.143993 76.407155 318.595591 0.110982 0.002916 3.100458 -0.110977 0.003091 -3.100458 -0.000000 0.000000 0.000000 -0.000000 0.000000 0.000000 0.000000 0.000000 0.000000 1.235056 0.541341 0.026640 -1.206862 -4.217103 -0.067137 2.582286 -0.440098 -3.088692 -5.250186 -4.373387 4.684342 0.000000 0.000000 0.000000 0.000000 0.000000 0.000000 -0.000000 0.000000 0.000000 -1.999073 4.265039 0.782211 -3.632015 3.114591 -2.555353 5.345527 1.110616 1.439484 0.000000 0.000000 0.000000 0.000000 0.000000 0.000000 -0.110977 0.003091 -3.100458 -0.000000 0.000000 0.000000 4.280458 -11.377159 1.087074 0.000000 0.000000 0.000000 -0.110977 0.003091 -3.100458 -0.000000 0.000000 0.000000 -5.868191 7.839845 7.155114 0.000000 0.000000 0.000000
22.249874 76.374058 318.432795 0.124188 -0.021993 3.129849 -0.122801 0.028741 -3.129794 -0.000000 0.000000 0.000000 -0.000000 0.000000 0.000000 0.000000 0.000000 0.000000 1.661443 0.712545 0.035175 -1.750124 -6.482111 -0.012593 2.786670 -0.750231 -4.234100 -5.861410 -5.616523 6.147566 0.000000 0.000000 0.000000 0.000000 0.000000 0.000000 -0.000000 0.000000 0.000000 -2.783794 5.868021 1.120475 -4.491138 3.468105 -3.284060 6.949881 2.362457 1.807160 0.000000 0.000000 0.000000 0.000000 0.000000 0.000000 -0.122801 0.028741 -3.129794 -0.000000 0.000000 0.000000 6.196751 -15.895995 1.615265 0.000000 0.000000 0.000000 -0.876473 -0.660929 -3.234726 0.713613 0.731043 0.096221 -9.614587 12.307027 12.052667 0.000000 0.000000 0.000000
22.329066 76.344169 318.303487 0.109180 -0.064491 3.102693 -0.105529 0.070306 -3.102567 -0.000000 0.000000 0.000000 -0.000000 0.000000 0.000000 0.000000 0.000000 0.000000 1.953981 0.814605 0.042333 -2.244879 -8.860862 0.097084 2.281057 -1.142873 -5.103762 -5.322890 -6.134562 7.034749 0.000000 0.000000 0.000000 0.000000 0.000000 0.000000 -0.357584 0.804946 0.082490 -3.045385 6.321105 1.278185 -4.888137 3.122263 -3.697753 8.004919 3.848176 1.879150 0.000000 0.000000 0.000000 0.000000 0.000000 0.000000 -0.105529 0.070306 -3.102567 -0.000000 0.000000 0.000000 7.667091 -19.010906 1.903746 0.000000 0.000000 0.000000 -0.970948 -0.720890 -3.223230 0.819653 0.838524 0.109752 -14.169289 16.989612 18.078694 0.000000 0.000000 0.000000
22.381572 76.317488 318.207668 0.065945 -0.124584 3.019170 -0.059292 0.127884 -3.019032 -0.000000 0.000000 0.000000 -0.000000 0.000000 0.000000 0.000000 0.000000 0.000000 2.110797 0.846942 0.048944 -2.688065 -11.361180 0.258948 1.037438 -1.656615 -5.664324 -3.705574 -5.886635 7.282875 0.000000 0.000000 0.000000 0.000000 0.000000 0.000000 -0.541448 0.910750 0.077414 -3.336678 7.122796 1.491391 -4.894429 2.119342 -3.803830 8.596586 5.490857 1.634439 0.000000 0.000000 0.000000 0.000000 0.000000 0.000000 -0.059292 0.127884 -3.019032 -0.000000 0.000000 0.000000 8.494353 -20.429278 1.781813 0.000000 0.000000 0.000000 -0.965958 -0.701523 -3.144992 0.859896 0.877816 0.114833 -19.696882 21.616834 25.365622 0.000000 0.000000 0.000000
22.379701 76.310156 318.158238 -0.029522 -0.213221 2.774570 0.039809 0.211542 -2.774699 -0.000000 0.000000 0.000000 -1.126813 0.182126 -0.380967 0.000000 0.000000 0.000000 2.117668 0.881972 0.044743 -3.135768 -14.367149 0.520182 -2.344736 -2.753324 -5.267355 0.142516 -3.979970 6.161985 0.000000 0.000000 0.000000 0.000000 0.000000 0.000000 -0.818801 0.970497 0.054093 -3.304453 7.615940 1.635873 -4.616916 0.086111 -3.442116 8.985444 6.103453 1.008526 0.000000 0.000000 0.000000 0.000000 0.000000 0.000000 -0.101308 -0.617131 -2.742358 0.101319 0.834474 -0.033579 7.893348 -10.167071 -6.289823 0.000000 0.000000 0.000000 -0.779757 -0.572482 -2.887549 0.779105 0.824258 0.104664 -27.531169 26.054736 34.908142 0.000000 0.000000 0.000000
22.350391 76.300187 318.152274 -0.124218 -0.299165 2.585622 0.137590 0.293256 -2.586298 -0.000000 0.000000 0.000000 -2.145312 0.370946 -0.720456 0.000000 0.000000 0.000000 2.061591 0.881331 0.040954 -3.564031 -17.568032 0.792818 -6.178959 -3.912371 -4.535357 4.423511 -2.091684 4.427904 0.000000 0.000000 0.000000 0.000000 0.000000 0.000000 -1.099130 1.027476 0.030229 -3.182824 7.831893 1.730665 -3.763803 -2.874131 -2.688465 8.633685 9.038984 -0.236013 0.000000 0.000000 0.000000 0.000000 0.000000 0.000000 0.104254 -1.019929 -2.508914 -0.024182 1.313385 -0.077318 7.763692 -10.349637 -5.919115 0.000000 0.000000 0.000000 -0.524475 -0.379343 -2.676275 0.629976 0.702754 0.085616 -36.941371 29.984122 47.232836 0.000000 0.000000 0.000000
